<?xml version="1.0" encoding="UTF-8"?>
<!DOCTYPE svg PUBLIC "-//W3C//DTD SVG 1.1//EN" "http://www.w3.org/Graphics/SVG/1.1/DTD/svg11.dtd">
<!-- Creator: CorelDRAW 2019 (64-Bit) -->
<svg xmlns="http://www.w3.org/2000/svg" xml:space="preserve" width="100px" height="100px" version="1.1" style="shape-rendering:geometricPrecision; text-rendering:geometricPrecision; image-rendering:optimizeQuality; fill-rule:evenodd; clip-rule:evenodd"
viewBox="0 0 100 100"
 xmlns:xlink="http://www.w3.org/1999/xlink">
 <defs>
  <style type="text/css">
   <![CDATA[
    .fil1 {fill:#F9C67C;fill-rule:nonzero;fill-opacity:0.901961}
    .fil0 {fill:#414755;fill-rule:nonzero;fill-opacity:0.901961}
   ]]>
  </style>
 </defs>
 <g id="Layer_x0020_1">
  <metadata id="CorelCorpID_0Corel-Layer"/>
  <g id="_1638745952192">
   <path class="fil0" d="M73.49 31.15c-1.38,1.57 -2.92,2.99 -4.59,4.25 3.95,2.32 6.61,6.59 6.61,11.49 0,7.36 -5.97,13.33 -13.33,13.33 -5.49,0 -10.2,-3.32 -12.24,-8.07 -2.04,4.75 -6.76,8.07 -12.25,8.07 -7.36,0 -13.32,-5.97 -13.32,-13.33 0,-4.9 2.65,-9.17 6.6,-11.49 -1.67,-1.26 -3.21,-2.68 -4.59,-4.25 -4.9,5.55 -7.87,12.83 -7.87,20.81 0,11.11 5.77,20.87 14.47,26.46 4.9,-3.14 10.71,-4.97 16.96,-4.97 6.24,0 12.06,1.83 16.95,4.97 8.7,-5.59 14.48,-15.35 14.48,-26.46 0,-7.98 -2.98,-15.26 -7.88,-20.81z"/>
   <path class="fil1" d="M54.01 59.79c0,3.39 -4.07,6.13 -4.07,6.13 0,0 -4.07,-2.74 -4.07,-6.13 0,-3.39 1.82,-4.41 4.07,-4.41 2.25,0 4.07,1.02 4.07,4.41z"/>
   <path class="fil1" d="M37.57 54.91c-4.46,0 -8.1,-3.63 -8.1,-8.1 0,-0.9 0.15,-1.76 0.42,-2.57 0.79,0.93 1.97,1.53 3.29,1.53 2.37,0 4.3,-1.93 4.3,-4.3 0,-1.02 -0.35,-1.95 -0.95,-2.69 0.34,-0.04 0.69,-0.07 1.04,-0.07 4.47,0 8.1,3.63 8.1,8.1 0,4.47 -3.63,8.1 -8.1,8.1z"/>
   <path class="fil1" d="M62.4 54.99c-4.47,0 -8.1,-3.63 -8.1,-8.1 0,-0.89 0.14,-1.76 0.42,-2.57 0.79,0.94 1.97,1.54 3.29,1.54 2.37,0 4.29,-1.93 4.29,-4.31 0,-1.01 -0.35,-1.95 -0.94,-2.69 0.34,-0.04 0.68,-0.06 1.04,-0.06 4.46,0 8.09,3.63 8.09,8.09 0,4.47 -3.63,8.1 -8.09,8.1z"/>
   <path class="fil0" d="M30.36 29.47c7.36,1.12 14.09,4.26 19.55,8.83 5.46,-4.57 12.14,-7.71 19.5,-8.83l-39.05 0z"/>
   <path class="fil0" d="M85.79 48.04c0,2.23 -0.3,4.4 -0.85,6.47 10.95,-11.41 10.59,-32.89 10.59,-32.89 -10.69,-0.6 -16.99,6.29 -18.13,7.67 5.14,4.6 8.39,11.29 8.39,18.75z"/>
   <path class="fil0" d="M14.21 48.12c0,-7.45 3.25,-14.14 8.4,-18.75 -1.15,-1.37 -7.45,-8.26 -18.14,-7.66 0,0 -0.36,21.47 10.59,32.89 -0.55,-2.07 -0.85,-4.24 -0.85,-6.48z"/>
  </g>
 </g>
</svg>
