<?xml version="1.0" encoding="UTF-8"?>
<!DOCTYPE svg PUBLIC "-//W3C//DTD SVG 1.1//EN" "http://www.w3.org/Graphics/SVG/1.1/DTD/svg11.dtd">
<!-- Creator: CorelDRAW 2019 (64-Bit) -->
<svg xmlns="http://www.w3.org/2000/svg" xml:space="preserve" width="4.2332mm" height="2.54mm" version="1.1" style="shape-rendering:geometricPrecision; text-rendering:geometricPrecision; image-rendering:optimizeQuality; fill-rule:evenodd; clip-rule:evenodd"
viewBox="0 0 423.32 254"
 xmlns:xlink="http://www.w3.org/1999/xlink">
 <defs>
  <style type="text/css">
   <![CDATA[
    .fil2 {fill:#FEFEFE;fill-rule:nonzero}
    .fil1 {fill:#FBB24A;fill-rule:nonzero}
    .fil0 {fill:#414755;fill-rule:nonzero}
   ]]>
  </style>
 </defs>
 <g id="Layer_x0020_1">
  <metadata id="CorelCorpID_0Corel-Layer"/>
  <g id="_1914678462944">
   <path class="fil0" d="M309.49 48.53c-5.75,6.51 -12.16,12.43 -19.1,17.69 16.43,9.64 27.5,27.44 27.5,47.86 0,30.65 -24.85,55.5 -55.5,55.5 -22.87,0 -42.5,-13.86 -51,-33.62 -8.49,19.76 -28.12,33.62 -50.99,33.62 -30.65,0 -55.49,-24.85 -55.49,-55.5 0,-20.42 11.06,-38.22 27.49,-47.86 -6.94,-5.26 -13.35,-11.18 -19.1,-17.69 -20.4,23.08 -32.8,53.39 -32.8,86.62 0,46.29 24.04,86.93 60.3,110.21 20.37,-13.08 44.59,-20.7 70.6,-20.7 26.01,0 50.22,7.62 70.59,20.7 36.26,-23.28 60.31,-63.92 60.31,-110.21 0,-33.23 -12.4,-63.54 -32.81,-86.62z"/>
   <path class="fil1" d="M228.35 167.78c0,14.11 -16.95,25.55 -16.95,25.55 0,0 -16.95,-11.44 -16.95,-25.55 0,-14.11 7.58,-18.38 16.95,-18.38 9.36,0 16.95,4.27 16.95,18.38z"/>
   <g>
    <path class="fil1" d="M159.91 147.46c-18.6,0 -33.73,-15.13 -33.73,-33.74 0,-18.59 15.13,-33.72 33.73,-33.72 18.59,0 33.73,15.13 33.73,33.72 0,18.61 -15.14,33.74 -33.73,33.74z"/>
    <path class="fil2" d="M141.62 109.4c-9.88,0 -17.91,-8.04 -17.91,-17.92 0,-9.87 8.03,-17.9 17.91,-17.9 9.87,0 17.91,8.03 17.91,17.9 0,9.88 -8.04,17.92 -17.91,17.92z"/>
   </g>
   <g>
    <path class="fil1" d="M263.29 147.81c-18.61,0 -33.74,-15.13 -33.74,-33.73 0,-18.6 15.13,-33.72 33.74,-33.72 18.59,0 33.72,15.12 33.72,33.72 0,18.6 -15.13,33.73 -33.72,33.73z"/>
    <path class="fil2" d="M245 109.75c-9.88,0 -17.92,-8.04 -17.92,-17.91 0,-9.88 8.04,-17.91 17.92,-17.91 9.87,0 17.9,8.03 17.9,17.91 0,9.87 -8.03,17.91 -17.9,17.91z"/>
   </g>
   <path class="fil0" d="M129.86 41.52c30.65,4.65 58.67,17.73 81.41,36.78 22.75,-19.05 50.56,-32.13 81.22,-36.78l-162.63 0z"/>
   <path class="fil0" d="M360.71 118.83c0,9.32 -1.24,18.35 -3.53,26.95 45.58,-47.52 44.1,-136.97 44.1,-136.97 -44.54,-2.49 -70.77,26.22 -75.53,31.93 21.44,19.18 34.96,47.05 34.96,78.09z"/>
   <path class="fil0" d="M62.62 119.2c0,-31.04 13.51,-58.91 34.96,-78.09 -4.77,-5.71 -31,-34.42 -75.53,-31.94 0,0 -1.49,89.46 44.09,136.98 -2.29,-8.6 -3.52,-17.63 -3.52,-26.95z"/>
  </g>
 </g>
</svg>
