<?xml version="1.0" encoding="UTF-8"?>
<!DOCTYPE svg PUBLIC "-//W3C//DTD SVG 1.1//EN" "http://www.w3.org/Graphics/SVG/1.1/DTD/svg11.dtd">
<!-- Creator: CorelDRAW 2019 (64-Bit) -->
<svg xmlns="http://www.w3.org/2000/svg" xml:space="preserve" width="50px" height="30px" version="1.1" style="shape-rendering:geometricPrecision; text-rendering:geometricPrecision; image-rendering:optimizeQuality; fill-rule:evenodd; clip-rule:evenodd"
viewBox="0 0 50 30"
 xmlns:xlink="http://www.w3.org/1999/xlink">
 <defs>
  <style type="text/css">
   <![CDATA[
    .fil2 {fill:#FEFEFE;fill-rule:nonzero}
    .fil1 {fill:#FBB24A;fill-rule:nonzero}
    .fil0 {fill:#414755;fill-rule:nonzero}
   ]]>
  </style>
 </defs>
 <g id="Layer_x0020_1">
  <metadata id="CorelCorpID_0Corel-Layer"/>
  <g id="_1914679165008">
   <path class="fil0" d="M36.56 5.73c-0.68,0.77 -1.44,1.47 -2.26,2.09 1.94,1.14 3.25,3.24 3.25,5.65 0,3.62 -2.94,6.56 -6.56,6.56 -2.7,0 -5.02,-1.64 -6.02,-3.97 -1,2.33 -3.32,3.97 -6.02,3.97 -3.62,0 -6.56,-2.94 -6.56,-6.56 0,-2.41 1.31,-4.51 3.25,-5.65 -0.82,-0.62 -1.58,-1.32 -2.26,-2.09 -2.41,2.73 -3.87,6.31 -3.87,10.23 0,5.47 2.84,10.27 7.12,13.02 2.41,-1.54 5.27,-2.44 8.34,-2.44 3.07,0 5.93,0.9 8.34,2.44 4.28,-2.75 7.12,-7.55 7.12,-13.02 0,-3.92 -1.46,-7.5 -3.87,-10.23z"/>
   <path class="fil1" d="M26.97 19.82c0,1.66 -2,3.01 -2,3.01 0,0 -2,-1.35 -2,-3.01 0,-1.67 0.89,-2.17 2,-2.17 1.1,0 2,0.5 2,2.17z"/>
   <g>
    <path class="fil1" d="M18.89 17.42c-2.2,0 -3.99,-1.79 -3.99,-3.99 0,-2.19 1.79,-3.98 3.99,-3.98 2.19,0 3.98,1.79 3.98,3.98 0,2.2 -1.79,3.99 -3.98,3.99z"/>
    <path class="fil2" d="M16.73 12.92c-1.17,0 -2.12,-0.95 -2.12,-2.11 0,-1.17 0.95,-2.12 2.12,-2.12 1.16,0 2.11,0.95 2.11,2.12 0,1.16 -0.95,2.11 -2.11,2.11z"/>
   </g>
   <g>
    <path class="fil1" d="M31.1 17.46c-2.2,0 -3.99,-1.79 -3.99,-3.99 0,-2.19 1.79,-3.98 3.99,-3.98 2.19,0 3.98,1.79 3.98,3.98 0,2.2 -1.79,3.99 -3.98,3.99z"/>
    <path class="fil2" d="M28.94 12.96c-1.17,0 -2.12,-0.95 -2.12,-2.11 0,-1.17 0.95,-2.12 2.12,-2.12 1.16,0 2.11,0.95 2.11,2.12 0,1.16 -0.95,2.11 -2.11,2.11z"/>
   </g>
   <path class="fil0" d="M15.34 4.9c3.62,0.55 6.93,2.1 9.61,4.35 2.69,-2.25 5.98,-3.8 9.6,-4.35l-19.21 0z"/>
   <path class="fil0" d="M42.6 14.04c0,1.1 -0.14,2.16 -0.41,3.18 5.38,-5.61 5.21,-16.18 5.21,-16.18 -5.26,-0.29 -8.36,3.1 -8.92,3.77 2.53,2.27 4.12,5.56 4.12,9.23z"/>
   <path class="fil0" d="M7.4 14.08c0,-3.67 1.59,-6.96 4.13,-9.22 -0.57,-0.68 -3.67,-4.07 -8.93,-3.78 0,0 -0.17,10.57 5.21,16.18 -0.27,-1.01 -0.41,-2.08 -0.41,-3.18z"/>
  </g>
 </g>
</svg>
